<svg id="Layer_1" data-name="Layer 1" xmlns="http://www.w3.org/2000/svg" viewBox="0 0 431.9062 506.9949"><defs><style>.cls-1,.cls-2{fill:none;stroke:#FFFFFF;stroke-miterlimit:10;}.cls-1{stroke-width:20px;}.cls-2{stroke-width:17px;}</style></defs><title>ai-icon</title><line class="cls-1" x1="147.3021" y1="297.3745" x2="147.3021" y2="341.3612"/><line class="cls-1" x1="215.9531" y1="299.3745" x2="215.9531" y2="431.2243"/><line class="cls-1" x1="291.3018" y1="299.3745" x2="291.3018" y2="341.3612"/><line class="cls-1" x1="150.3021" y1="333.8514" x2="104.7041" y2="379.4494"/><line class="cls-1" x1="288.3018" y1="333.8514" x2="333.8998" y2="379.4494"/><line class="cls-1" x1="107.1161" y1="372.803" x2="107.1161" y2="437.2883"/><line class="cls-1" x1="331.3715" y1="372.803" x2="331.3715" y2="437.2883"/><circle class="cls-2" cx="107.1161" cy="464.8596" r="33.6353"/><circle class="cls-2" cx="331.3715" cy="464.8596" r="33.6353"/><circle class="cls-2" cx="215.9531" cy="464.8596" r="33.6353"/><path class="cls-1" d="M365.59,167.49a130.0653,130.0653,0,0,0-254.2689-54.412c-1.2171-.0819-2.441-.1385-3.6788-.1385a54.0293,54.0293,0,0,0-53.7337,60.1334,68.0887,68.0887,0,0,0-40.0336,62.039h0a68.0928,68.0928,0,0,0,68.0928,68.0928H357.6878a68.0928,68.0928,0,0,0,68.0929-68.0928h0A68.0918,68.0918,0,0,0,365.59,167.49Z" transform="translate(-3.8745 -3.8302)"/></svg>